<svg width="960" height="640" viewBox="0 0 960 640" xmlns="http://www.w3.org/2000/svg">
  <defs>
    <linearGradient id="casterBase" x1="20%" y1="0%" x2="80%" y2="100%">
      <stop offset="0%" stop-color="#140A2A" />
      <stop offset="45%" stop-color="#2C1760" />
      <stop offset="100%" stop-color="#8B5CF6" />
    </linearGradient>
    <radialGradient id="casterGlow" cx="35%" cy="30%" r="60%">
      <stop offset="0%" stop-color="#C4B5FD" stop-opacity="0.75" />
      <stop offset="100%" stop-color="#C4B5FD" stop-opacity="0" />
    </radialGradient>
  </defs>
  <rect width="960" height="640" fill="#090513" />
  <rect x="44" y="44" width="872" height="552" rx="56" fill="url(#casterBase)" />
  <circle cx="360" cy="220" r="220" fill="url(#casterGlow)" />
  <circle cx="700" cy="420" r="170" fill="rgba(255,255,255,0.1)" />
  <path d="M320 360 Q420 180 560 280 Q640 330 720 260" stroke="rgba(214, 187, 250, 0.6)" stroke-width="18" stroke-linecap="round" fill="none" />
  <path d="M240 440 C320 360 400 400 460 340 C520 280 600 300 660 340 C720 380 760 360 820 320" stroke="rgba(139,92,246,0.35)" stroke-width="32" stroke-linecap="round" fill="none" />
  <path d="M420 200 L480 120 L520 200 L460 240 Z" fill="rgba(255,255,255,0.12)" />
  <path d="M620 340 L700 260 L760 320 L680 400 Z" fill="rgba(139,92,246,0.35)" />
  <path d="M360 220 L380 180 L420 220 L400 260 Z" fill="rgba(255,255,255,0.25)" />
  <text x="80" y="540" fill="rgba(255,255,255,0.4)" font-family="Montserrat, 'Segoe UI', sans-serif" font-size="54" letter-spacing="0.3em">CASTER STARTER</text>
</svg>
