<svg width="960" height="640" viewBox="0 0 960 640" xmlns="http://www.w3.org/2000/svg">
  <defs>
    <linearGradient id="rangedBase" x1="0%" y1="20%" x2="100%" y2="80%">
      <stop offset="0%" stop-color="#041226" />
      <stop offset="50%" stop-color="#0B3358" />
      <stop offset="100%" stop-color="#0EA5E9" />
    </linearGradient>
    <radialGradient id="rangedGlow" cx="70%" cy="35%" r="55%">
      <stop offset="0%" stop-color="#93C5FD" stop-opacity="0.7" />
      <stop offset="100%" stop-color="#93C5FD" stop-opacity="0" />
    </radialGradient>
  </defs>
  <rect width="960" height="640" fill="#04070F" />
  <rect x="48" y="48" width="864" height="544" rx="52" fill="url(#rangedBase)" />
  <circle cx="660" cy="240" r="200" fill="url(#rangedGlow)" />
  <circle cx="260" cy="460" r="160" fill="rgba(255,255,255,0.08)" />
  <path d="M220 260 Q480 120 720 220" stroke="rgba(255,255,255,0.25)" stroke-width="26" stroke-linecap="round" fill="none" />
  <path d="M220 260 C360 320 540 320 720 220" stroke="rgba(14,165,233,0.7)" stroke-width="12" stroke-linecap="round" fill="none" />
  <path d="M700 220 L760 210 L718 264 Z" fill="rgba(14,165,233,0.85)" />
  <path d="M300 420 L460 300 L520 360 L360 480 Z" fill="rgba(255,255,255,0.08)" />
  <path d="M620 420 L780 320 L800 400 L660 480 Z" fill="rgba(14,165,233,0.3)" />
  <text x="80" y="540" fill="rgba(255,255,255,0.4)" font-family="Montserrat, 'Segoe UI', sans-serif" font-size="54" letter-spacing="0.24em">RANGED STARTER</text>
</svg>
