<svg width="960" height="640" viewBox="0 0 960 640" xmlns="http://www.w3.org/2000/svg">
  <defs>
    <linearGradient id="summonerBase" x1="0%" y1="0%" x2="100%" y2="100%">
      <stop offset="0%" stop-color="#061C1F" />
      <stop offset="50%" stop-color="#0B3B36" />
      <stop offset="100%" stop-color="#22C55E" />
    </linearGradient>
    <radialGradient id="summonerGlow" cx="65%" cy="40%" r="60%">
      <stop offset="0%" stop-color="#A7F3D0" stop-opacity="0.7" />
      <stop offset="100%" stop-color="#A7F3D0" stop-opacity="0" />
    </radialGradient>
  </defs>
  <rect width="960" height="640" fill="#04100F" />
  <rect x="46" y="46" width="868" height="548" rx="54" fill="url(#summonerBase)" />
  <circle cx="620" cy="260" r="210" fill="url(#summonerGlow)" />
  <circle cx="320" cy="420" r="170" fill="rgba(255,255,255,0.08)" />
  <path d="M280 220 C320 160 400 140 460 200 C510 250 600 260 660 220 C720 180 780 200 820 260" stroke="rgba(34,197,94,0.45)" stroke-width="30" stroke-linecap="round" fill="none" />
  <path d="M240 360 C300 420 360 420 420 360 C480 300 560 320 620 360 C680 400 760 380 800 320" stroke="rgba(167,243,208,0.6)" stroke-width="18" stroke-linecap="round" fill="none" />
  <path d="M300 300 L360 220 L420 280 L360 360 Z" fill="rgba(34,197,94,0.34)" />
  <path d="M520 200 L580 120 L640 200 L580 260 Z" fill="rgba(255,255,255,0.08)" />
  <path d="M700 340 L760 280 L820 340 L760 400 Z" fill="rgba(34,197,94,0.34)" />
  <text x="80" y="540" fill="rgba(255,255,255,0.35)" font-family="Montserrat, 'Segoe UI', sans-serif" font-size="54" letter-spacing="0.26em">SUMMONER STARTER</text>
</svg>
