<svg xmlns="http://www.w3.org/2000/svg" viewBox="0 0 120 120">
  <defs>
    <linearGradient id="flame" x1="0%" y1="100%" x2="0%" y2="0%">
      <stop offset="0%" style="stop-color:#ea580c;stop-opacity:1" />
      <stop offset="40%" style="stop-color:#f97316;stop-opacity:1" />
      <stop offset="70%" style="stop-color:#fb923c;stop-opacity:1" />
      <stop offset="100%" style="stop-color:#fdba74;stop-opacity:1" />
    </linearGradient>
    <radialGradient id="glow">
      <stop offset="0%" style="stop-color:#fb923c;stop-opacity:0.4" />
      <stop offset="100%" style="stop-color:#0b0b0c;stop-opacity:0" />
    </radialGradient>
  </defs>

  <!-- Glow effect -->
  <circle cx="60" cy="60" r="50" fill="url(#glow)"/>

  <!-- Main flame body -->
  <path d="M60 20 C55 30, 50 40, 52 52 C48 58, 45 65, 48 75 C51 85, 56 95, 60 100 C64 95, 69 85, 72 75 C75 65, 72 58, 68 52 C70 40, 65 30, 60 20 Z"
        fill="url(#flame)"
        stroke="#ea580c"
        stroke-width="1"/>

  <!-- Inner flame highlight -->
  <path d="M60 30 C57 36, 55 42, 56 50 C54 54, 53 58, 55 65 C56 70, 58 75, 60 78 C62 75, 64 70, 65 65 C67 58, 66 54, 64 50 C65 42, 63 36, 60 30 Z"
        fill="#fef3c7"
        opacity="0.7"/>

  <!-- Hot core -->
  <ellipse cx="60" cy="60" rx="8" ry="12" fill="#fef3c7" opacity="0.9"/>

  <!-- Flame flickers -->
  <path d="M54 35 C53 38, 52 41, 53 44 C52 45, 53 46, 54 47 C54 46, 55 45, 55 44 C55 41, 55 38, 54 35 Z"
        fill="#fdba74" opacity="0.8"/>
  <path d="M66 35 C67 38, 68 41, 67 44 C68 45, 67 46, 66 47 C66 46, 65 45, 65 44 C65 41, 65 38, 66 35 Z"
        fill="#fdba74" opacity="0.8"/>
</svg>
