<svg xmlns="http://www.w3.org/2000/svg" viewBox="0 0 32 32">
  <defs>
    <linearGradient id="flameGradient" x1="0%" y1="100%" x2="0%" y2="0%">
      <stop offset="0%" style="stop-color:#f97316;stop-opacity:1" />
      <stop offset="50%" style="stop-color:#fb923c;stop-opacity:1" />
      <stop offset="100%" style="stop-color:#fdba74;stop-opacity:1" />
    </linearGradient>
  </defs>
  <rect width="32" height="32" fill="#0b0b0c"/>
  <path d="M16 4 C14 8, 12 12, 14 16 C12 18, 11 20, 12 23 C13 26, 15 28, 16 28 C17 28, 19 26, 20 23 C21 20, 20 18, 18 16 C20 12, 18 8, 16 4 Z" fill="url(#flameGradient)"/>
  <path d="M16 8 C15 10, 14 12, 15 14 C14 15, 14 16, 15 18 C15.5 19.5, 16 20, 16 20 C16 20, 16.5 19.5, 17 18 C18 16, 18 15, 17 14 C18 12, 17 10, 16 8 Z" fill="#fef3c7" opacity="0.8"/>
</svg>
